# xmcd
#
# Track frame offsets: 
#        150
#        12217
#        24619
#        37099
#        48626
#        60401
#        73391
#        84919
#        97748
#        110738
#        121472
#        134319
#        147550
#        160316
#        172754
#        185888
#        197850
#        211463
#        224995
#        237452
#        249322
#        262011
#        274733
#        287362
#        300667
#        313450
#        326270
#        338824
#
# Disc length: 4688 seconds
#
# Revision: 0
# Processed by: cddbd v1.5.2PL0 Copyright (c) Steve Scherf et al.
# Submitted via: ExactAudioCopyFreeDBPlugin 1.0
#
DISCID=b6124e1c
DTITLE=Roy Acuff and The Smoky Mountain Boys - The King of Country Music
DTITLE=Various Artist - Disc 3
DYEAR=1900
DGENRE=Country
TTITLE0=Old Age Pension Check
TTITLE1=Eyes Are Watching You
TTITLE2=I'm Building A Home
TTITLE3=Railroad Boomer (take 1)
TTITLE4=Railroad Boomer (take 2)
TTITLE5=Walkin' In My Sleep
TTITLE6=Wonder Is All I Do
TTITLE7=Drifting Too Far From The Shore
TTITLE8=Come Back Little Pal
TTITLE9=Will The Circle Be Unbroken
TTITLE10=Coming From The Ball
TTITLE11=When I Lay My Burden Down
TTITLE12=Beneath That Lonely Mound Of Clay
TTITLE13=The Streamlined Cannonball
TTITLE14=Weary River
TTITLE15=Just To Ease My Worried Mind
TTITLE16=Farther Along (take 1)
TTITLE17=Farther Along (take 2)
TTITLE18=Blue Eyed Darling (take 1)
TTITLE19=Blue Eyed Darling (take2)
TTITLE20=The Precious Jewel (take 1)
TTITLE21=The Precious Jewel (take 2)
TTITLE22=The Broken Heart
TTITLE23=Would You Care
TTITLE24=Lonesome River Blues (take 1)
TTITLE25=Lonesome River Blues (take 2)
TTITLE26=What Good Will It Do
TTITLE27=Mule Skinner Blues
EXTD=
EXTT0=
EXTT1=
EXTT2=
EXTT3=
EXTT4=
EXTT5=
EXTT6=
EXTT7=
EXTT8=
EXTT9=
EXTT10=
EXTT11=
EXTT12=
EXTT13=
EXTT14=
EXTT15=
EXTT16=
EXTT17=
EXTT18=
EXTT19=
EXTT20=
EXTT21=
EXTT22=
EXTT23=
EXTT24=
EXTT25=
EXTT26=
EXTT27=
PLAYORDER=
